<svg version="1.1" id="Layer_1" xmlns="http://www.w3.org/2000/svg" xmlns:xlink="http://www.w3.org/1999/xlink" x="0px" y="0px"
	 width="100%" viewBox="0 0 377 384" enable-background="new 0 0 377 384" xml:space="preserve">
<path fill="#111111" opacity="1.000000" stroke="none" 
	d="
M1.000000,139.000000 
	C1.000000,92.666672 1.000000,46.833351 1.000000,1.000018 
	C126.666634,1.000012 252.333267,1.000012 377.999939,1.000006 
	C377.999939,128.999954 377.999939,256.999908 377.999969,384.999878 
	C252.333405,384.999939 126.666817,384.999939 1.000114,384.999969 
	C1.000000,303.166656 1.000000,221.333328 1.000000,139.000000 
M88.106369,324.495972 
	C88.397041,324.690552 88.687714,324.885132 89.269974,325.676086 
	C93.113457,328.782898 96.956940,331.889709 101.134964,335.463745 
	C101.449242,335.673798 101.763519,335.883820 102.465485,336.631165 
	C106.913933,338.662323 111.362373,340.693481 116.545776,342.876312 
	C117.039291,342.875153 117.532806,342.873962 118.546837,343.326721 
	C122.497208,347.970673 125.533005,353.022858 126.006203,359.604492 
	C126.858101,359.933685 128.065460,360.400299 129.377365,361.703308 
	C127.892166,366.071259 130.574203,367.286987 134.462463,367.607819 
	C134.073090,370.032501 133.123962,372.263794 133.567429,374.171356 
	C134.052689,376.258636 135.824875,378.046722 137.036194,379.965210 
	C140.400650,377.453400 144.748077,375.569458 146.862396,372.259155 
	C149.128815,368.710693 144.494598,367.733002 142.101868,366.258209 
	C141.280518,365.751984 140.469528,365.228973 139.703247,364.744843 
	C141.772842,360.534180 143.709091,356.594788 146.022461,351.888153 
	C147.409393,352.338959 150.175354,353.238037 153.217056,354.763947 
	C156.649002,356.729889 159.891968,359.599609 163.574005,360.369537 
	C166.406570,360.961792 169.791550,358.912140 173.774734,358.112671 
	C179.840469,359.645447 186.374771,360.260742 191.806503,363.034882 
	C195.403015,364.871735 198.114105,366.817963 200.614807,365.469849 
	C204.104294,367.407379 206.617432,368.802765 209.130600,370.198181 
	C210.047745,367.111145 210.964890,364.024078 212.092590,360.228333 
	C214.013382,359.650543 216.998932,358.752441 220.723083,357.971771 
	C222.682541,359.932861 224.570404,361.973877 226.632095,363.820801 
	C227.641006,364.724640 228.913651,365.483887 230.196686,365.836945 
	C230.562714,365.937653 232.025940,364.251801 231.893173,363.612061 
	C230.928619,358.964966 232.772156,356.255920 237.104080,354.710236 
	C238.034729,354.378174 238.609009,353.047394 240.025970,352.057404 
	C244.701370,349.708313 249.376770,347.359192 254.770950,344.954437 
	C258.503815,343.005524 262.236664,341.056610 266.505341,339.668182 
	C270.177307,340.429321 273.377411,340.260681 275.432373,336.325287 
	C276.157867,334.935974 277.785034,334.017487 279.629547,332.661987 
	C283.417969,330.029053 287.206390,327.396149 291.625031,324.538574 
	C295.407227,322.725586 299.189453,320.912598 303.484772,319.573120 
	C304.265076,319.274414 305.722321,318.981354 305.724854,318.676178 
	C305.768066,313.503204 309.817261,311.009003 312.746155,307.732635 
	C315.581665,304.560699 318.236938,301.227661 321.572479,297.680084 
	C324.713531,294.630493 327.854584,291.580902 331.489960,288.102905 
	C331.999634,287.413177 332.509308,286.723450 333.502380,285.529846 
	C334.241028,283.896210 334.966309,282.256409 335.720825,280.630157 
	C337.824219,276.096649 339.939728,271.568756 342.540039,266.560272 
	C345.993073,259.035370 349.655090,251.596924 352.819031,243.952362 
	C354.651062,239.525925 355.222504,234.226944 362.154083,236.139954 
	C362.213196,236.156265 362.347382,235.900345 362.690765,235.454147 
	C362.280212,234.804092 361.943512,233.866196 361.286652,233.299011 
	C357.941223,230.410217 357.697235,226.995438 358.740570,222.913239 
	C359.846710,218.585449 360.126434,214.051254 361.132751,209.691620 
	C361.910034,206.324280 362.671204,202.711090 364.497162,199.892349 
	C366.547272,196.727600 368.643005,193.979202 367.370514,190.012787 
	C366.707794,187.946960 366.428497,185.640488 365.310272,183.861038 
	C362.268372,179.020447 359.669312,174.285706 359.852448,168.183044 
	C359.995209,163.424911 359.650452,158.401947 358.241943,153.897003 
	C354.788940,142.852798 350.686035,132.006409 346.644531,121.154945 
	C345.455872,117.963371 343.597656,115.021179 341.891418,111.254425 
	C338.204132,104.472389 334.516815,97.690353 330.849945,90.337791 
	C330.562164,89.873497 330.274384,89.409195 329.949860,88.210480 
	C328.040527,81.420082 323.660309,76.610115 317.584747,72.471176 
	C317.046173,72.308411 316.507599,72.145638 315.611847,71.427139 
	C312.221863,68.847832 308.831879,66.268524 305.064178,63.170067 
	C304.718048,62.921795 304.371887,62.673523 303.675690,61.916969 
	C300.136078,59.230022 296.596436,56.543076 292.718262,53.267567 
	C289.762573,51.219707 286.806854,49.171848 283.821777,46.482880 
	C282.897705,46.043118 281.973602,45.603355 280.355927,44.969364 
	C276.316925,42.613197 272.277924,40.257034 267.922729,37.452484 
	C267.600555,37.289387 267.278351,37.126293 266.554565,36.392529 
	C262.702576,34.739044 258.850555,33.085560 254.249466,31.192902 
	C253.469345,31.104931 252.689224,31.016960 251.511063,30.338890 
	C246.673447,29.227236 241.835815,28.115582 236.319046,26.735115 
	C232.204910,25.597183 228.090759,24.459249 223.142151,23.091511 
	C218.451736,23.011753 213.761307,22.931995 208.611298,22.203007 
	C204.713760,21.467428 200.816208,20.731850 196.384735,19.613964 
	C191.872437,19.794758 187.360138,19.975552 181.959915,20.025061 
	C177.353455,20.344845 172.746994,20.664627 167.380264,20.883059 
	C164.180237,19.988068 161.232529,20.128849 158.163376,22.978025 
	C155.103119,23.932299 152.042877,24.886572 148.264984,25.918341 
	C147.795547,26.032461 147.326111,26.146580 146.197311,26.395058 
	C144.509277,26.969006 142.821228,27.542952 140.344269,28.012297 
	C139.826904,28.108307 139.309540,28.204319 138.127213,28.514120 
	C135.437042,29.396875 132.746872,30.279631 129.391006,31.116215 
	C129.174362,31.163538 128.957718,31.210859 128.070160,31.362934 
	C125.764420,32.229790 123.458679,33.096645 120.902634,33.463459 
	C120.568443,33.351204 120.234245,33.238953 119.135086,33.006771 
	C116.074295,32.959114 113.013504,32.911461 109.234222,32.928024 
	C107.258728,31.948132 105.283234,30.968239 103.435997,30.051968 
	C102.892876,32.769138 102.781349,34.775375 102.080124,36.548389 
	C100.363182,40.889599 98.454781,45.161957 96.432373,49.370209 
	C95.978226,50.315201 94.680565,50.823418 93.876831,51.637028 
	C89.514565,56.052868 85.185417,60.501427 80.152374,64.968903 
	C75.690796,69.449791 71.196686,73.898872 66.776276,78.420013 
	C61.797134,83.512604 57.894775,90.001717 49.294930,91.077942 
	C48.538780,91.382835 47.782631,91.687729 46.372047,92.258652 
	C38.186619,95.611626 35.870945,101.419365 39.546741,109.250626 
	C39.872688,109.945053 40.138077,110.847092 39.986149,111.557434 
	C39.029427,116.030617 37.946671,120.476845 36.351803,125.339149 
	C32.553646,132.836792 28.551184,140.240372 25.039083,147.869705 
	C23.136223,152.003296 22.127100,156.542023 20.608303,160.860519 
	C19.208347,164.841095 17.707945,168.787964 16.174288,172.719437 
	C14.702533,176.492203 12.328908,180.118408 11.806973,184.004471 
	C11.155746,188.853195 12.269197,193.913544 12.061126,198.858963 
	C11.970754,201.006927 10.610339,203.158493 9.599217,205.195465 
	C8.471399,207.467514 7.003441,209.572540 5.918284,211.861572 
	C5.788234,212.135895 7.542493,213.765671 7.720381,213.653397 
	C9.850799,212.308762 11.817517,210.709259 13.890782,209.268097 
	C15.399709,208.219208 17.021629,206.460083 18.561432,206.493210 
	C23.053871,206.589844 26.732315,210.391754 27.641010,215.041443 
	C28.876154,221.361557 30.132959,227.678482 31.250376,234.019699 
	C31.468395,235.256927 31.510714,236.846298 30.917652,237.849854 
	C28.313429,242.256699 27.433300,246.477417 30.571920,251.078934 
	C31.095757,251.846924 30.192066,253.588638 29.398880,255.280365 
	C21.311367,261.941711 13.701517,268.919037 10.868138,279.640472 
	C10.277498,281.875397 9.941476,282.918152 12.551168,284.182617 
	C17.923670,286.785706 18.093477,291.084412 13.432056,294.847290 
	C12.264836,295.789520 11.089009,296.721069 9.256861,298.185150 
	C10.777822,298.340454 11.304183,298.560699 11.678401,298.408051 
	C21.066479,294.578064 21.060251,294.574188 27.812025,302.077698 
	C28.474371,302.813812 29.211317,303.482819 30.279226,304.726166 
	C32.274117,307.722504 37.323734,309.394470 34.507504,314.577820 
	C34.360130,314.849091 36.128899,316.161438 37.273655,317.689148 
	C42.608147,320.227692 46.736683,318.805786 47.912735,314.108154 
	C51.617817,313.437897 55.322895,312.767609 59.816605,312.086334 
	C61.103153,312.207642 62.878738,311.832703 63.592068,312.535706 
	C66.777069,315.674500 69.865677,313.915405 73.787277,312.903076 
	C74.536484,313.000366 75.285683,313.097656 76.342758,313.770111 
	C79.872437,316.846619 83.402115,319.923157 87.088890,323.525604 
	C87.394547,323.705414 87.700203,323.885193 88.011612,323.991272 
	C88.011612,323.991272 87.937912,323.985443 88.106369,324.495972 
z"/>
<path fill="#123458" opacity="1.000000" stroke="none" 
	d="
M37.005604,316.989105 
	C36.128899,316.161438 34.360130,314.849091 34.507504,314.577820 
	C37.323734,309.394470 32.274117,307.722504 30.115118,303.969421 
	C29.950010,287.101929 29.949011,270.991180 29.948015,254.880402 
	C30.192066,253.588638 31.095757,251.846924 30.571920,251.078934 
	C27.433300,246.477417 28.313429,242.256699 30.917652,237.849854 
	C31.510714,236.846298 31.468395,235.256927 31.250376,234.019699 
	C30.132959,227.678482 28.876154,221.361557 27.641010,215.041443 
	C26.732315,210.391754 23.053871,206.589844 18.561432,206.493210 
	C17.021629,206.460083 15.399709,208.219208 13.890782,209.268097 
	C11.817517,210.709259 9.850799,212.308762 7.720381,213.653397 
	C7.542493,213.765671 5.788234,212.135895 5.918284,211.861572 
	C7.003441,209.572540 8.471399,207.467514 9.599217,205.195465 
	C10.610339,203.158493 11.970754,201.006927 12.061126,198.858963 
	C12.269197,193.913544 11.155746,188.853195 11.806973,184.004471 
	C12.328908,180.118408 14.702533,176.492203 16.174288,172.719437 
	C17.707945,168.787964 19.208347,164.841095 20.608303,160.860519 
	C22.127100,156.542023 23.136223,152.003296 25.039083,147.869705 
	C28.551184,140.240372 32.553646,132.836792 36.826553,125.506393 
	C37.533123,128.137329 37.965652,130.600891 37.967308,133.064728 
	C38.005501,189.956009 37.980282,246.847305 38.037495,303.738556 
	C38.040977,307.203949 38.629139,310.668762 38.672970,314.275146 
	C37.930283,315.286804 37.459881,316.157135 36.984234,317.013184 
	C36.978989,316.998901 37.005604,316.989105 37.005604,316.989105 
z"/>
<path fill="#103054" opacity="1.000000" stroke="none" 
	d="
M342.046295,111.964691 
	C343.597656,115.021179 345.455872,117.963371 346.644531,121.154945 
	C350.686035,132.006409 354.788940,142.852798 358.241943,153.897003 
	C359.650452,158.401947 359.995209,163.424911 359.852448,168.183044 
	C359.669312,174.285706 362.268372,179.020447 365.310272,183.861038 
	C366.428497,185.640488 366.707794,187.946960 367.370514,190.012787 
	C368.643005,193.979202 366.547272,196.727600 364.497162,199.892349 
	C362.671204,202.711090 361.910034,206.324280 361.132751,209.691620 
	C360.126434,214.051254 359.846710,218.585449 358.740570,222.913239 
	C357.697235,226.995438 357.941223,230.410217 361.286652,233.299011 
	C361.943512,233.866196 362.280212,234.804092 362.690765,235.454147 
	C362.347382,235.900345 362.213196,236.156265 362.154083,236.139954 
	C355.222504,234.226944 354.651062,239.525925 352.819031,243.952362 
	C349.655090,251.596924 345.993073,259.035370 342.102997,266.429260 
	C341.443970,264.332764 341.029694,262.367432 341.028168,260.401733 
	C340.991943,213.189865 340.985291,165.977936 341.044159,118.766098 
	C341.046997,116.498550 341.697449,114.231812 342.046295,111.964691 
z"/>
<path fill="#143A61" opacity="1.000000" stroke="none" 
	d="
M38.945259,314.133850 
	C38.629139,310.668762 38.040977,307.203949 38.037495,303.738556 
	C37.980282,246.847305 38.005501,189.956009 37.967308,133.064728 
	C37.965652,130.600891 37.533123,128.137329 37.103432,125.302811 
	C37.946671,120.476845 39.029427,116.030617 39.986149,111.557434 
	C40.138077,110.847092 39.872688,109.945053 39.546741,109.250626 
	C35.870945,101.419365 38.186619,95.611626 47.053566,92.291229 
	C48.162979,94.344566 48.946915,96.362717 48.961746,98.386497 
	C49.068542,112.960228 48.987617,127.535248 49.058044,142.109421 
	C49.067360,144.037018 49.595921,145.962128 50.118301,147.904358 
	C50.352604,147.920349 50.821457,147.948334 50.750561,148.290009 
	C48.233986,154.598724 45.194141,160.405945 43.532364,166.583847 
	C42.224606,171.445587 42.464520,176.759399 42.290203,181.881699 
	C42.045170,189.082016 41.164307,196.416565 42.160873,203.466766 
	C43.661995,214.086517 46.551231,224.510071 48.698360,235.178680 
	C48.346920,235.559494 48.162125,235.790344 47.750881,236.368256 
	C47.339798,238.511078 47.024029,240.318344 47.021835,242.126007 
	C46.993622,265.399963 47.010136,288.673981 47.023224,312.339966 
	C47.060253,313.254150 47.089390,313.776306 47.118526,314.298492 
	C46.736683,318.805786 42.608147,320.227692 37.139629,317.339111 
	C37.005604,316.989105 36.978989,316.998901 37.282455,316.895569 
	C38.039036,315.906097 38.492153,315.019989 38.945259,314.133850 
z"/>
<path fill="#1C4873" opacity="1.000000" stroke="none" 
	d="
M50.821457,147.948334 
	C50.821457,147.948334 50.352604,147.920349 50.144539,147.446274 
	C49.940861,128.372330 49.945244,109.772453 49.949623,91.172577 
	C57.894775,90.001717 61.797134,83.512604 66.776276,78.420013 
	C71.196686,73.898872 75.690796,69.449791 80.709183,65.299026 
	C81.855484,72.699265 82.444977,79.769394 82.738602,87.153389 
	C82.501205,91.392776 82.374313,95.331383 82.650581,99.241508 
	C83.785225,115.300926 80.925240,123.868057 67.377136,128.487122 
	C67.318810,113.422607 67.318810,98.817772 67.318810,84.212929 
	C66.306671,84.607567 66.079834,85.032433 66.078590,85.457947 
	C66.039108,98.941872 66.001350,112.425911 66.038170,125.909737 
	C66.041183,127.010811 66.575638,128.110443 66.619263,129.418839 
	C63.293152,132.552887 59.956314,135.260544 57.204536,138.469849 
	C54.741795,141.342056 52.923874,144.767166 50.821457,147.948334 
z"/>
<path fill="#3984BE" opacity="1.000000" stroke="none" 
	d="
M219.984497,357.854309 
	C216.998932,358.752441 214.013382,359.650543 212.092590,360.228333 
	C210.964890,364.024078 210.047745,367.111145 209.130585,370.198181 
	C206.617432,368.802765 204.104294,367.407379 200.614807,365.469849 
	C198.114105,366.817963 195.403015,364.871735 191.806503,363.034882 
	C186.374771,360.260742 179.840469,359.645447 172.959869,358.036865 
	C171.084991,357.864746 170.024994,357.768463 168.973572,357.229126 
	C169.134003,347.763489 169.285828,338.740906 169.818085,329.708191 
	C180.919708,329.436707 191.640930,329.175323 202.928085,328.900146 
	C207.298401,333.820801 207.685379,333.760254 211.102951,327.453094 
	C211.486038,326.746124 212.890305,325.850281 213.325058,326.061737 
	C214.362137,326.566162 215.356232,327.545624 215.905106,328.578949 
	C216.787766,330.240692 217.297180,332.100708 218.275299,334.111694 
	C219.050720,336.209076 219.860992,338.061615 219.915695,339.936218 
	C220.089859,345.904510 219.982864,351.881012 219.984497,357.854309 
M201.031937,360.836731 
	C201.152527,361.133331 201.273117,361.429962 201.393692,361.726562 
	C201.510895,361.658112 201.730682,361.589813 201.730789,361.521179 
	C201.746078,352.149353 201.745316,342.777496 201.745316,333.405640 
	C201.497223,333.408752 201.249130,333.411865 201.001038,333.415009 
	C201.001038,342.337677 201.001038,351.260376 201.031937,360.836731 
z"/>
<path fill="#13365B" opacity="1.000000" stroke="none" 
	d="
M341.968872,111.609558 
	C341.697449,114.231812 341.046997,116.498550 341.044159,118.766098 
	C340.985291,165.977936 340.991943,213.189865 341.028168,260.401733 
	C341.029694,262.367432 341.443970,264.332764 341.858215,266.668457 
	C339.939728,271.568756 337.824219,276.096649 335.720825,280.630157 
	C334.966309,282.256409 334.241028,283.896210 333.035278,285.429871 
	C332.374542,283.532593 332.020660,281.735962 332.013245,279.937897 
	C331.962738,267.701233 332.031189,255.463974 331.939850,243.227798 
	C331.924286,241.141098 331.325684,239.058777 330.978394,236.610931 
	C330.929230,235.763153 330.898102,235.278900 330.723999,234.483856 
	C331.809296,227.714966 332.798798,221.200211 334.314606,214.810303 
	C337.661407,200.701462 337.727386,186.447327 335.610931,172.289276 
	C334.101532,162.192261 331.174744,152.307159 328.902893,141.973495 
	C328.943085,141.146957 328.960907,140.674408 329.220856,139.839661 
	C329.649475,137.352249 329.990173,135.227554 329.997528,133.101715 
	C330.046112,119.050522 330.023132,104.999069 330.004456,90.968216 
	C329.985504,90.988724 329.982483,91.044525 330.193695,91.007088 
	C330.404907,90.969650 330.829529,90.908310 330.829529,90.908310 
	C334.516815,97.690353 338.204132,104.472389 341.968872,111.609558 
z"/>
<path fill="#255C8B" opacity="1.000000" stroke="none" 
	d="
M83.034477,86.839516 
	C82.444977,79.769394 81.855484,72.699265 81.055428,65.283928 
	C85.185417,60.501427 89.514565,56.052868 93.876831,51.637028 
	C94.680565,50.823418 95.978226,50.315201 96.432373,49.370209 
	C98.454781,45.161957 100.363182,40.889599 102.080124,36.548389 
	C102.781349,34.775375 102.892876,32.769138 103.435997,30.051968 
	C105.283234,30.968239 107.258728,31.948132 109.581718,33.330322 
	C109.619377,47.588898 109.116966,61.445538 109.142838,75.301193 
	C109.148872,78.534439 110.948509,81.764328 111.621246,85.197388 
	C106.576744,85.983688 101.833923,86.568382 97.269867,86.771637 
	C97.448631,75.675293 97.448631,64.960388 97.448631,54.245480 
	C97.223221,54.243237 96.997803,54.240993 96.772392,54.238750 
	C96.772392,65.160896 96.772392,76.083038 96.322639,87.027878 
	C91.593414,86.980217 87.313950,86.909866 83.034477,86.839516 
z"/>
<path fill="#3071A5" opacity="1.000000" stroke="none" 
	d="
M152.941330,354.137115 
	C150.175354,353.238037 147.409393,352.338959 146.022461,351.888153 
	C143.709091,356.594788 141.772842,360.534180 139.703247,364.744843 
	C140.469528,365.228973 141.280518,365.751984 142.101868,366.258209 
	C144.494598,367.733002 149.128815,368.710693 146.862396,372.259155 
	C144.748077,375.569458 140.400650,377.453400 137.036194,379.965210 
	C135.824875,378.046722 134.052689,376.258636 133.567429,374.171356 
	C133.123962,372.263794 134.073090,370.032501 134.462463,367.607819 
	C130.574203,367.286987 127.892166,366.071259 129.466644,360.911133 
	C129.704163,351.967987 129.770447,343.814270 130.036942,335.667145 
	C130.160782,331.880676 130.673553,328.106964 131.343842,324.431061 
	C138.789963,326.395081 145.902222,328.255524 153.008972,330.575806 
	C152.982727,338.736145 152.962036,346.436646 152.941330,354.137115 
z"/>
<path fill="#1C4872" opacity="1.000000" stroke="none" 
	d="
M293.056824,53.856129 
	C296.596436,56.543076 300.136078,59.230022 303.821869,62.678234 
	C303.968048,72.140747 303.968048,80.842003 303.968048,89.543251 
	C304.459351,89.536484 304.950623,89.529716 305.441925,89.522949 
	C305.441925,80.911705 305.441925,72.300461 305.441925,63.689217 
	C308.831879,66.268524 312.221863,68.847832 315.801086,72.175293 
	C316.005951,84.886314 316.021606,96.849182 315.898315,109.114967 
	C315.483673,110.024719 315.207947,110.631546 314.658752,111.025757 
	C307.899628,102.581757 301.414001,94.350372 294.789917,85.935722 
	C294.461914,85.510117 294.255554,85.283089 293.977173,85.081032 
	C293.921967,85.090691 293.881897,84.986046 293.817566,84.576035 
	C293.521088,74.062721 293.288971,63.959423 293.056824,53.856129 
z"/>
<path fill="#225684" opacity="1.000000" stroke="none" 
	d="
M86.931793,322.999695 
	C83.402115,319.923157 79.872437,316.846619 76.042511,313.074951 
	C75.503784,308.912231 75.267433,305.444519 75.026268,301.977112 
	C74.705826,297.369629 74.381645,292.762390 74.081772,287.767761 
	C74.439537,286.136505 74.774605,284.892578 75.381775,283.866760 
	C78.863083,287.083405 81.971001,290.200165 85.303886,293.054260 
	C91.142357,298.054016 97.118843,302.892578 103.020561,308.168579 
	C102.997025,309.032104 102.990440,309.525757 102.785538,310.379456 
	C102.394691,315.145752 102.295128,319.558563 101.980965,323.956055 
	C101.717384,327.645477 101.203506,331.317047 100.800430,334.996521 
	C96.956940,331.889709 93.113457,328.782898 88.977783,325.170624 
	C88.436363,324.438599 88.187134,324.212036 87.937912,323.985443 
	C87.937912,323.985443 88.011612,323.991272 87.886070,323.800415 
	C87.484283,323.406250 87.208038,323.202972 86.931793,322.999695 
M88.044624,302.159210 
	C88.044624,308.021484 88.044624,313.883789 88.044624,319.746063 
	C88.480820,319.731384 88.917015,319.716675 89.353210,319.701996 
	C88.944099,313.668945 88.534988,307.635864 88.044624,302.159210 
z"/>
<path fill="#3277AE" opacity="1.000000" stroke="none" 
	d="
M148.982620,25.840847 
	C152.042877,24.886572 155.103119,23.932299 158.592575,23.008617 
	C159.021774,23.039209 159.076950,23.158396 159.033905,23.612875 
	C158.991150,33.046036 158.991455,42.024719 159.125305,51.324390 
	C159.554626,52.522629 159.850418,53.399876 160.121002,54.637894 
	C158.146423,58.188976 156.931366,62.553642 154.095810,64.326714 
	C148.072128,68.093300 146.363037,73.965431 143.954895,79.740891 
	C143.425125,81.011429 142.146683,81.969788 141.164368,82.600838 
	C141.121552,64.125488 141.127380,46.121193 141.133194,28.116899 
	C142.821228,27.542952 144.509277,26.969006 146.738174,26.676380 
	C147.515823,33.075138 147.839920,39.190796 147.964111,45.310516 
	C148.081635,51.102539 147.989365,56.898815 147.989365,62.693222 
	C148.800278,62.365368 148.981735,62.060024 148.981995,61.754528 
	C148.992493,49.783310 148.986481,37.812077 148.982620,25.840847 
z"/>
<path fill="#174168" opacity="1.000000" stroke="none" 
	d="
M314.932251,111.238373 
	C315.207947,110.631546 315.483673,110.024719 316.115784,108.784531 
	C316.645477,103.362617 316.815765,98.573952 316.992737,93.785545 
	C317.248657,86.860916 317.509460,79.936470 317.768188,73.011940 
	C323.660309,76.610115 328.040527,81.420082 329.965637,88.928001 
	C329.981750,90.111855 329.982117,90.578194 329.982483,91.044525 
	C329.982483,91.044525 329.985504,90.988724 329.802429,91.333183 
	C329.423157,93.636345 329.065582,95.594307 329.056549,97.553871 
	C328.991150,111.769684 328.996063,125.985825 328.978760,140.201859 
	C328.960907,140.674408 328.943085,141.146957 328.596619,141.815063 
	C326.035034,140.294342 323.957611,138.307022 321.536926,136.917892 
	C316.410797,133.976212 315.750183,129.557922 316.033295,124.189796 
	C316.259308,119.903931 315.342041,115.557770 314.932251,111.238373 
z"/>
<path fill="#174068" opacity="1.000000" stroke="none" 
	d="
M47.991936,236.032898 
	C48.162125,235.790344 48.346920,235.559494 48.796829,235.541870 
	C50.303219,238.765488 51.535358,241.797714 52.820099,244.807480 
	C55.256104,250.514282 57.722256,256.208221 59.965591,262.272552 
	C59.504139,264.583984 59.042496,266.529572 59.035389,268.476837 
	C58.982353,283.016815 59.019257,297.557129 59.027973,312.097321 
	C55.322895,312.767609 51.617817,313.437897 47.515633,314.203308 
	C47.089390,313.776306 47.060253,313.254150 47.255333,312.001892 
	C47.652519,309.132263 47.972641,306.992889 47.975830,304.853088 
	C48.010010,281.913086 47.994110,258.972961 47.991936,236.032898 
z"/>
<path fill="#1B4872" opacity="1.000000" stroke="none" 
	d="
M59.422287,312.091827 
	C59.019257,297.557129 58.982353,283.016815 59.035389,268.476837 
	C59.042496,266.529572 59.504139,264.583984 60.281406,262.397644 
	C65.574905,269.321320 70.342293,276.484955 75.109680,283.648621 
	C74.774605,284.892578 74.439537,286.136505 74.072487,288.219727 
	C73.704651,296.980011 73.368797,304.901031 73.032944,312.822083 
	C69.865677,313.915405 66.777069,315.674500 63.592068,312.535706 
	C62.878738,311.832703 61.103153,312.207642 59.422287,312.091827 
z"/>
<path fill="#2E70A5" opacity="1.000000" stroke="none" 
	d="
M130.056702,31.162390 
	C132.746872,30.279631 135.437042,29.396875 138.675842,28.750248 
	C139.477783,31.106203 139.935547,33.224457 139.951889,35.346115 
	C140.076004,51.465225 140.113754,67.584999 140.110413,84.062149 
	C140.218872,89.222893 141.543091,93.450432 145.929291,96.422623 
	C145.936111,97.069122 145.936691,97.438499 145.563065,97.866867 
	C143.513931,97.614845 141.838974,97.303825 139.997971,96.691048 
	C136.551315,92.626587 133.270706,88.863892 130.003479,84.626343 
	C130.030121,66.488464 130.043411,48.825428 130.056702,31.162390 
z"/>
<path fill="#113154" opacity="1.000000" stroke="none" 
	d="
M29.673447,255.080383 
	C29.949011,270.991180 29.950010,287.101929 29.932323,303.697845 
	C29.211317,303.482819 28.474371,302.813812 27.812025,302.077698 
	C21.060251,294.574188 21.066479,294.578064 11.678401,298.408051 
	C11.304183,298.560699 10.777822,298.340454 9.256861,298.185150 
	C11.089009,296.721069 12.264836,295.789520 13.432056,294.847290 
	C18.093477,291.084412 17.923670,286.785706 12.551168,284.182617 
	C9.941476,282.918152 10.277498,281.875397 10.868138,279.640472 
	C13.701517,268.919037 21.311367,261.941711 29.673447,255.080383 
z"/>
<path fill="#1B456E" opacity="1.000000" stroke="none" 
	d="
M320.971405,297.965424 
	C318.236938,301.227661 315.581665,304.560699 312.746155,307.732635 
	C309.817261,311.009003 305.768066,313.503204 305.724854,318.676178 
	C305.722321,318.981354 304.265076,319.274414 303.232727,318.860535 
	C302.986725,312.997681 303.139435,307.842194 302.954987,302.698730 
	C302.790314,298.107422 302.253143,293.529480 301.954773,288.597839 
	C307.296906,280.131012 312.564636,272.011963 318.051941,264.254028 
	C318.514374,273.062836 318.619690,281.518097 319.079895,289.953979 
	C319.227020,292.650848 320.314301,295.296387 320.971405,297.965424 
z"/>
<path fill="#276192" opacity="1.000000" stroke="none" 
	d="
M111.922913,84.995766 
	C110.948509,81.764328 109.148872,78.534439 109.142838,75.301193 
	C109.116966,61.445538 109.619377,47.588898 109.940964,33.298210 
	C113.013504,32.911461 116.074295,32.959114 119.533707,33.526260 
	C119.966202,48.239246 119.962402,62.433044 120.075233,76.625916 
	C120.091843,78.715981 120.661438,80.801636 121.046486,83.184753 
	C121.378250,84.024803 121.638710,84.569450 121.621513,85.341896 
	C118.203537,85.378387 115.063225,85.187080 111.922913,84.995766 
z"/>
<path fill="#153B61" opacity="1.000000" stroke="none" 
	d="
M321.271942,297.822754 
	C320.314301,295.296387 319.227020,292.650848 319.079895,289.953979 
	C318.619690,281.518097 318.514374,273.062836 318.119141,263.890350 
	C322.266846,253.708618 326.566895,244.251633 330.866974,234.794632 
	C330.898102,235.278900 330.929230,235.763153 330.983887,237.082184 
	C331.003540,254.788391 330.999573,271.659851 330.995605,288.531311 
	C327.854584,291.580902 324.713531,294.630493 321.271942,297.822754 
z"/>
<path fill="#2D6A9E" opacity="1.000000" stroke="none" 
	d="
M236.998199,27.003929 
	C241.835815,28.115582 246.673447,29.227236 251.739075,31.108803 
	C251.935959,42.588757 251.904816,53.298794 251.561340,64.244766 
	C245.882568,65.891205 241.248825,64.217278 236.966232,60.612701 
	C236.980316,49.093723 236.989258,38.048824 236.998199,27.003929 
z"/>
<path fill="#3173A8" opacity="1.000000" stroke="none" 
	d="
M220.353790,357.913055 
	C219.982864,351.881012 220.089859,345.904510 219.915695,339.936218 
	C219.860992,338.061615 219.050720,336.209076 218.559006,333.849915 
	C225.350922,331.960876 232.170105,330.568390 238.837036,329.551147 
	C238.905670,337.343201 239.126556,344.759918 239.347443,352.176666 
	C238.609009,353.047394 238.034729,354.378174 237.104080,354.710236 
	C232.772156,356.255920 230.928619,358.964966 231.893173,363.612061 
	C232.025940,364.251801 230.562714,365.937653 230.196686,365.836945 
	C228.913651,365.483887 227.641006,364.724640 226.632095,363.820801 
	C224.570404,361.973877 222.682541,359.932861 220.353790,357.913055 
z"/>
<path fill="#3A87C2" opacity="1.000000" stroke="none" 
	d="
M182.847839,20.156345 
	C187.360138,19.975552 191.872437,19.794758 196.374832,19.987015 
	C196.176010,21.755375 195.875992,23.145988 195.816727,24.546785 
	C195.501862,31.989120 195.247360,39.434013 194.672272,46.730175 
	C191.779526,41.857868 187.937347,39.713852 182.539413,40.990974 
	C180.315018,41.517254 178.137436,42.241299 175.744080,42.520355 
	C175.377045,36.248875 175.015381,30.326710 175.194214,24.420908 
	C175.229248,23.263840 177.201981,21.893946 178.565399,21.129292 
	C179.789688,20.442673 181.405014,20.453297 182.847839,20.156345 
z"/>
<path fill="#357FB6" opacity="1.000000" stroke="none" 
	d="
M153.079193,354.450531 
	C152.962036,346.436646 152.982727,338.736145 153.297119,330.392334 
	C158.322388,329.545227 163.053955,329.341522 167.819733,329.598236 
	C167.883957,334.199921 167.797714,338.346161 167.973740,342.481232 
	C168.189499,347.549744 168.624680,352.608917 168.964981,357.672180 
	C170.024994,357.768463 171.084991,357.864746 172.537933,357.999176 
	C169.791550,358.912140 166.406570,360.961792 163.574005,360.369537 
	C159.891968,359.599609 156.649002,356.729889 153.079193,354.450531 
z"/>
<path fill="#276192" opacity="1.000000" stroke="none" 
	d="
M254.998550,31.432076 
	C258.850555,33.085560 262.702576,34.739044 266.767242,37.150429 
	C266.975494,45.387619 267.063873,52.868874 266.906250,60.344936 
	C266.862793,62.407547 266.085999,64.454697 265.322693,66.420654 
	C261.055817,65.581444 257.111969,64.830521 253.123322,63.607826 
	C253.056091,54.260361 252.930084,45.382660 253.101593,36.510715 
	C253.134567,34.806248 254.336121,33.124374 254.998550,31.432076 
z"/>
<path fill="#3781BB" opacity="1.000000" stroke="none" 
	d="
M160.146210,54.277122 
	C159.850418,53.399876 159.554626,52.522629 159.322357,50.960999 
	C159.282883,41.237213 159.179916,32.197803 159.076950,23.158396 
	C159.076950,23.158396 159.021774,23.039209 158.978577,22.989731 
	C161.232529,20.128849 164.180237,19.988068 168.165619,20.902168 
	C172.922852,20.576998 174.184143,22.646814 174.084045,26.324080 
	C173.912933,32.610226 173.949677,38.902031 173.789307,45.482391 
	C173.021820,46.511127 172.416855,47.305458 171.696991,47.976559 
	C169.140060,50.360279 167.968475,55.794411 162.542908,52.178661 
	C162.312485,52.025112 160.970413,53.539661 160.146210,54.277122 
z"/>
<path fill="#3173A9" opacity="1.000000" stroke="none" 
	d="
M236.658630,26.869522 
	C236.989258,38.048824 236.980316,49.093723 236.632843,60.523323 
	C231.618378,57.307404 226.942429,53.706787 222.516174,49.816322 
	C223.176453,47.614536 223.901962,45.708988 223.940887,43.789505 
	C224.079269,36.969341 223.983627,30.144428 223.976624,23.321316 
	C228.090759,24.459249 232.204910,25.597183 236.658630,26.869522 
z"/>
<path fill="#2B6A9F" opacity="1.000000" stroke="none" 
	d="
M121.899178,85.114090 
	C121.638710,84.569450 121.378250,84.024803 121.039177,82.727448 
	C121.024689,65.970993 121.088814,49.967247 121.152939,33.963501 
	C123.458679,33.096645 125.764420,32.229790 128.479431,31.756134 
	C128.807892,49.585819 128.727066,67.022308 128.333847,84.376068 
	C125.980682,84.566925 123.939934,84.840508 121.899178,85.114090 
z"/>
<path fill="#286192" opacity="1.000000" stroke="none" 
	d="
M102.983849,310.019379 
	C102.990440,309.525757 102.997025,309.032104 103.284225,308.278015 
	C108.396225,311.295074 113.227600,314.572601 118.032608,317.937378 
	C118.006233,318.024628 117.939468,318.194214 117.706863,318.519104 
	C117.319374,322.282196 117.238197,325.725739 116.991432,329.157349 
	C116.665894,333.684692 116.210434,338.202637 115.810829,342.724670 
	C111.362373,340.693481 106.913933,338.662323 102.448174,335.983154 
	C102.615196,326.896576 102.799522,318.457977 102.983849,310.019379 
z"/>
<path fill="#235987" opacity="1.000000" stroke="none" 
	d="
M268.238922,37.900864 
	C272.277924,40.257034 276.316925,42.613197 280.691711,45.524174 
	C281.010742,55.494976 280.993988,64.910965 280.962646,74.508316 
	C280.948059,74.689667 280.922119,75.052612 280.610718,74.917694 
	C276.280487,72.352188 272.261658,69.921593 268.198212,66.993324 
	C268.182007,56.964050 268.210480,47.432457 268.238922,37.900864 
z"/>
<path fill="#2E6B9E" opacity="1.000000" stroke="none" 
	d="
M131.010010,324.327454 
	C130.673553,328.106964 130.160782,331.880676 130.036942,335.667145 
	C129.770447,343.814270 129.704163,351.967987 129.414383,360.492920 
	C128.065460,360.400299 126.858101,359.933685 126.006203,359.604492 
	C125.533005,353.022858 122.497208,347.970673 118.292023,342.639526 
	C118.004623,334.032959 117.972046,326.113586 117.939468,318.194214 
	C117.939468,318.194214 118.006233,318.024628 118.369957,318.047546 
	C122.825790,320.156097 126.917908,322.241760 131.010010,324.327454 
z"/>
<path fill="#3781BB" opacity="1.000000" stroke="none" 
	d="
M194.971954,46.878021 
	C195.247360,39.434013 195.501862,31.989120 195.816727,24.546785 
	C195.875992,23.145988 196.176010,21.755375 196.641800,20.178165 
	C200.816208,20.731850 204.713760,21.467428 208.828461,23.005138 
	C209.043304,30.802933 209.040985,37.798592 208.799713,45.046379 
	C201.760223,51.972672 199.825211,52.197590 194.971954,46.878021 
z"/>
<path fill="#347BB2" opacity="1.000000" stroke="none" 
	d="
M209.038666,44.794254 
	C209.040985,37.798592 209.043304,30.802933 209.058258,23.329754 
	C213.761307,22.931995 218.451736,23.011753 223.559387,23.206413 
	C223.983627,30.144428 224.079269,36.969341 223.940887,43.789505 
	C223.901962,45.708988 223.176453,47.614536 222.199020,49.633369 
	C220.390366,48.664581 218.568314,47.828178 218.008682,46.471161 
	C215.767761,41.037231 212.515854,42.678570 209.038666,44.794254 
z"/>
<path fill="#1F4D77" opacity="1.000000" stroke="none" 
	d="
M301.880341,288.945618 
	C302.253143,293.529480 302.790314,298.107422 302.954987,302.698730 
	C303.139435,307.842194 302.986725,312.997681 302.976196,318.623779 
	C299.189453,320.912598 295.407227,322.725586 291.308746,324.198883 
	C290.620056,316.141602 290.247620,308.423981 290.062195,300.441345 
	C294.126221,296.432709 298.003296,292.689178 301.880341,288.945618 
z"/>
<path fill="#21537F" opacity="1.000000" stroke="none" 
	d="
M280.922119,75.052612 
	C280.922119,75.052612 280.948059,74.689667 281.187012,74.121094 
	C281.620575,66.463692 281.705994,59.368984 282.087372,52.290230 
	C282.181580,50.541550 283.237427,48.844681 283.851196,47.123993 
	C286.806854,49.171848 289.762573,51.219707 292.887543,53.561844 
	C293.288971,63.959423 293.521088,74.062721 293.547668,84.398438 
	C289.202087,81.438118 285.062103,78.245369 280.922119,75.052612 
z"/>
<path fill="#235987" opacity="1.000000" stroke="none" 
	d="
M279.000488,332.884033 
	C277.785034,334.017487 276.157867,334.935974 275.432373,336.325287 
	C273.377411,340.260681 270.177307,340.429321 266.243286,338.912354 
	C265.985382,333.505951 266.172852,328.844635 265.901093,324.210266 
	C265.796326,322.422760 264.648499,320.696411 264.192749,318.686371 
	C268.281860,315.944092 272.154114,313.457642 276.339355,311.154724 
	C277.427582,313.587006 278.710358,315.799591 278.873413,318.091858 
	C279.222565,323.000763 278.993011,327.950806 279.000488,332.884033 
z"/>
<path fill="#2D6A9E" opacity="1.000000" stroke="none" 
	d="
M239.686707,352.117035 
	C239.126556,344.759918 238.905670,337.343201 239.248779,329.493286 
	C243.824600,328.345520 247.836411,327.630890 252.056122,327.281067 
	C252.509216,329.572601 252.798798,331.494873 252.990295,333.426880 
	C253.372726,337.285156 253.701355,341.148712 254.052185,345.010071 
	C249.376770,347.359192 244.701370,349.708313 239.686707,352.117035 
z"/>
<path fill="#21537F" opacity="1.000000" stroke="none" 
	d="
M279.315002,332.773010 
	C278.993011,327.950806 279.222565,323.000763 278.873413,318.091858 
	C278.710358,315.799591 277.427582,313.587006 276.583618,310.934631 
	C280.968323,307.256104 285.421753,303.981232 289.875183,300.706390 
	C290.247620,308.423981 290.620056,316.141602 290.993652,324.311218 
	C287.206390,327.396149 283.417969,330.029053 279.315002,332.773010 
z"/>
<path fill="#276192" opacity="1.000000" stroke="none" 
	d="
M254.411575,344.982269 
	C253.701355,341.148712 253.372726,337.285156 252.990295,333.426880 
	C252.798798,331.494873 252.509216,329.572601 252.228363,326.981934 
	C256.120453,323.859375 260.048157,321.400787 263.975891,318.942200 
	C264.648499,320.696411 265.796326,322.422760 265.901093,324.210266 
	C266.172852,328.844635 265.985382,333.505951 265.975403,338.632080 
	C262.236664,341.056610 258.503815,343.005524 254.411575,344.982269 
z"/>
<path fill="#476888" opacity="1.000000" stroke="none" 
	d="
M49.622276,91.125259 
	C49.945244,109.772453 49.940861,128.372330 49.910240,147.430298 
	C49.595921,145.962128 49.067360,144.037018 49.058044,142.109421 
	C48.987617,127.535248 49.068542,112.960228 48.961746,98.386497 
	C48.946915,96.362717 48.162979,94.344566 47.380783,92.158218 
	C47.782631,91.687729 48.538780,91.382835 49.622276,91.125259 
z"/>
<path fill="#5C90BB" opacity="1.000000" stroke="none" 
	d="
M140.178421,83.704567 
	C140.113754,67.584999 140.076004,51.465225 139.951889,35.346115 
	C139.935547,33.224457 139.477783,31.106203 139.008316,28.643353 
	C139.309540,28.204319 139.826904,28.108307 140.738739,28.064598 
	C141.127380,46.121193 141.121552,64.125488 140.933441,82.806137 
	C140.560211,83.556526 140.369308,83.630547 140.178421,83.704567 
z"/>
<path fill="#5F8FB7" opacity="1.000000" stroke="none" 
	d="
M128.646240,84.458794 
	C128.727066,67.022308 128.807892,49.585819 128.814911,31.703758 
	C128.957718,31.210859 129.174362,31.163538 129.723846,31.139303 
	C130.043411,48.825428 130.030121,66.488464 129.644867,84.513084 
	C129.064026,84.736046 128.855133,84.597420 128.646240,84.458794 
z"/>
<path fill="#405E7B" opacity="1.000000" stroke="none" 
	d="
M331.242798,288.317108 
	C330.999573,271.659851 331.003540,254.788391 331.001953,237.445679 
	C331.325684,239.058777 331.924286,241.141098 331.939850,243.227798 
	C332.031189,255.463974 331.962738,267.701233 332.013245,279.937897 
	C332.020660,281.735962 332.374542,283.532593 332.793579,285.681824 
	C332.509308,286.723450 331.999634,287.413177 331.242798,288.317108 
z"/>
<path fill="#5887AF" opacity="1.000000" stroke="none" 
	d="
M121.027786,33.713478 
	C121.088814,49.967247 121.024689,65.970993 120.967873,82.432037 
	C120.661438,80.801636 120.091843,78.715981 120.075233,76.625916 
	C119.962402,62.433044 119.966202,48.239246 119.916191,33.586224 
	C120.234245,33.238953 120.568443,33.351204 121.027786,33.713478 
z"/>
<path fill="#5C90BB" opacity="1.000000" stroke="none" 
	d="
M173.899109,45.191460 
	C173.949677,38.902031 173.912933,32.610226 174.084045,26.324080 
	C174.184143,22.646814 172.922852,20.576998 168.545746,20.952843 
	C172.746994,20.664627 177.353455,20.344845 182.403870,20.090702 
	C181.405014,20.453297 179.789688,20.442673 178.565399,21.129292 
	C177.201981,21.893946 175.229248,23.263840 175.194214,24.420908 
	C175.015381,30.326710 175.377045,36.248875 175.600800,42.800293 
	C175.067703,44.020664 174.483398,44.606060 173.899109,45.191460 
z"/>
<path fill="#5C90BB" opacity="1.000000" stroke="none" 
	d="
M148.623810,25.879593 
	C148.986481,37.812077 148.992493,49.783310 148.981995,61.754528 
	C148.981735,62.060024 148.800278,62.365368 147.989365,62.693222 
	C147.989365,56.898815 148.081635,51.102539 147.964111,45.310516 
	C147.839920,39.190796 147.515823,33.075138 147.067856,26.609203 
	C147.326111,26.146580 147.795547,26.032461 148.623810,25.879593 
z"/>
<path fill="#476888" opacity="1.000000" stroke="none" 
	d="
M317.676453,72.741562 
	C317.509460,79.936470 317.248657,86.860916 316.992737,93.785545 
	C316.815765,98.573952 316.645477,103.362617 316.254730,108.481598 
	C316.021606,96.849182 316.005951,84.886314 315.979675,72.453156 
	C316.507599,72.145638 317.046173,72.308411 317.676453,72.741562 
z"/>
<path fill="#7498B8" opacity="1.000000" stroke="none" 
	d="
M254.624008,31.312489 
	C254.336121,33.124374 253.134567,34.806248 253.101593,36.510715 
	C252.930084,45.382660 253.056091,54.260361 252.795853,63.644730 
	C252.300018,64.105209 252.086853,64.057022 251.873688,64.008835 
	C251.904816,53.298794 251.935959,42.588757 251.938110,31.403852 
	C252.689224,31.016960 253.469345,31.104931 254.624008,31.312489 
z"/>
<path fill="#537B9E" opacity="1.000000" stroke="none" 
	d="
M283.836487,46.803436 
	C283.237427,48.844681 282.181580,50.541550 282.087372,52.290230 
	C281.705994,59.368984 281.620575,66.463692 281.201599,73.939735 
	C280.993988,64.910965 281.010742,55.494976 281.038513,45.621288 
	C281.973602,45.603355 282.897705,46.043118 283.836487,46.803436 
z"/>
<path fill="#537B9E" opacity="1.000000" stroke="none" 
	d="
M268.080811,37.676674 
	C268.210480,47.432457 268.182007,56.964050 267.766052,66.811790 
	C266.800903,66.921600 266.223328,66.715271 265.645721,66.508942 
	C266.085999,64.454697 266.862793,62.407547 266.906250,60.344936 
	C267.063873,52.868874 266.975494,45.387619 266.968048,37.435760 
	C267.278351,37.126293 267.600555,37.289387 268.080811,37.676674 
z"/>
<path fill="#476888" opacity="1.000000" stroke="none" 
	d="
M305.253052,63.429642 
	C305.441925,72.300461 305.441925,80.911705 305.441925,89.522949 
	C304.950623,89.529716 304.459351,89.536484 303.968048,89.543251 
	C303.968048,80.842003 303.968048,72.140747 303.996887,62.932377 
	C304.371887,62.673523 304.718048,62.921795 305.253052,63.429642 
z"/>
<path fill="#537B9E" opacity="1.000000" stroke="none" 
	d="
M102.785538,310.379456 
	C102.799522,318.457977 102.615196,326.896576 102.254333,335.714539 
	C101.763519,335.883820 101.449242,335.673798 100.967705,335.230133 
	C101.203506,331.317047 101.717384,327.645477 101.980965,323.956055 
	C102.295128,319.558563 102.394691,315.145752 102.785538,310.379456 
z"/>
<path fill="#486E91" opacity="1.000000" stroke="none" 
	d="
M73.410110,312.862579 
	C73.368797,304.901031 73.704651,296.980011 74.049789,288.606995 
	C74.381645,292.762390 74.705826,297.369629 75.026268,301.977112 
	C75.267433,305.444519 75.503784,308.912231 75.888580,312.787354 
	C75.285683,313.097656 74.536484,313.000366 73.410110,312.862579 
z"/>
<path fill="#5F8FB7" opacity="1.000000" stroke="none" 
	d="
M117.706863,318.519104 
	C117.972046,326.113586 118.004623,334.032959 118.031761,342.412567 
	C117.532806,342.873962 117.039291,342.875153 116.178307,342.800476 
	C116.210434,338.202637 116.665894,333.684692 116.991432,329.157349 
	C117.238197,325.725739 117.319374,322.282196 117.706863,318.519104 
z"/>
<path fill="#476888" opacity="1.000000" stroke="none" 
	d="
M330.193665,91.007088 
	C329.982117,90.578194 329.981750,90.111855 329.983978,89.295212 
	C330.274384,89.409195 330.562164,89.873497 330.839722,90.623047 
	C330.829529,90.908310 330.404907,90.969650 330.193665,91.007088 
z"/>
<path fill="#537B9E" opacity="1.000000" stroke="none" 
	d="
M87.010345,323.262634 
	C87.208038,323.202972 87.484283,323.406250 87.883194,323.837250 
	C87.700203,323.885193 87.394547,323.705414 87.010345,323.262634 
z"/>
<path fill="#537B9E" opacity="1.000000" stroke="none" 
	d="
M88.022141,324.240723 
	C88.187134,324.212036 88.436363,324.438599 88.831985,324.872437 
	C88.687714,324.885132 88.397041,324.690552 88.022141,324.240723 
z"/>
<path fill="#111111" opacity="1.000000" stroke="none" 
	d="
M38.672974,314.275146 
	C38.492153,315.019989 38.039036,315.906097 37.287697,316.909851 
	C37.459881,316.157135 37.930283,315.286804 38.672974,314.275146 
z"/>
<path fill="#111111" opacity="1.000000" stroke="none" 
	d="
M265.322693,66.420654 
	C266.223328,66.715271 266.800903,66.921600 267.810669,67.309471 
	C272.261658,69.921593 276.280487,72.352188 280.610718,74.917702 
	C285.062103,78.245369 289.202087,81.438118 293.612000,84.808456 
	C293.881897,84.986046 293.921967,85.090691 294.070923,85.298256 
	C294.409088,85.764465 294.645264,85.968857 294.928375,86.118988 
	C301.414001,94.350372 307.899628,102.581757 314.658752,111.025757 
	C315.342041,115.557770 316.259308,119.903931 316.033295,124.189796 
	C315.750183,129.557922 316.410797,133.976212 321.536926,136.917892 
	C323.957611,138.307022 326.035034,140.294342 328.574219,142.169052 
	C331.174744,152.307159 334.101532,162.192261 335.610931,172.289276 
	C337.727386,186.447327 337.661407,200.701462 334.314606,214.810303 
	C332.798798,221.200211 331.809296,227.714966 330.723999,234.483856 
	C326.566895,244.251633 322.266846,253.708618 317.899597,263.529297 
	C312.564636,272.011963 307.296906,280.131012 301.954773,288.597839 
	C298.003296,292.689178 294.126221,296.432709 290.062195,300.441345 
	C285.421753,303.981232 280.968323,307.256104 276.270630,310.751068 
	C272.154114,313.457642 268.281860,315.944092 264.192749,318.686371 
	C260.048157,321.400787 256.120453,323.859375 252.020477,326.617126 
	C247.836411,327.630890 243.824600,328.345520 239.401031,329.117981 
	C232.170105,330.568390 225.350922,331.960876 218.248016,333.615173 
	C217.297180,332.100708 216.787766,330.240692 215.905106,328.578949 
	C215.356232,327.545624 214.362137,326.566162 213.325058,326.061737 
	C212.890305,325.850281 211.486038,326.746124 211.102951,327.453094 
	C207.685379,333.760254 207.298401,333.820801 202.928085,328.900146 
	C191.640930,329.175323 180.919708,329.436707 169.588989,329.506348 
	C168.581497,329.255676 168.183517,329.196747 167.785538,329.137817 
	C163.053955,329.341522 158.322388,329.545227 153.302643,329.932465 
	C145.902222,328.255524 138.789963,326.395081 131.343857,324.431061 
	C126.917908,322.241760 122.825790,320.156097 118.396332,317.960297 
	C113.227600,314.572601 108.396225,311.295074 103.301178,307.908112 
	C97.118843,302.892578 91.142357,298.054016 85.303886,293.054260 
	C81.971001,290.200165 78.863083,287.083405 75.381775,283.866760 
	C70.342293,276.484955 65.574905,269.321320 60.491699,262.032593 
	C57.722256,256.208221 55.256104,250.514282 52.820099,244.807480 
	C51.535358,241.797714 50.303219,238.765488 48.948868,235.380219 
	C46.551231,224.510071 43.661995,214.086517 42.160873,203.466766 
	C41.164307,196.416565 42.045170,189.082016 42.290203,181.881699 
	C42.464520,176.759399 42.224606,171.445587 43.532364,166.583847 
	C45.194141,160.405945 48.233986,154.598724 50.750557,148.290009 
	C52.923874,144.767166 54.741795,141.342056 57.204536,138.469849 
	C59.956314,135.260544 63.293152,132.552887 66.766510,129.361893 
	C67.157646,129.096863 67.435471,128.946808 67.435471,128.946808 
	C80.925240,123.868057 83.785225,115.300926 82.650581,99.241508 
	C82.374313,95.331383 82.501205,91.392776 82.738602,87.153389 
	C87.313950,86.909866 91.593414,86.980217 96.389145,87.093239 
	C96.905396,87.135910 97.091095,87.153069 97.091095,87.153069 
	C101.833923,86.568382 106.576744,85.983688 111.621246,85.197388 
	C115.063225,85.187080 118.203537,85.378387 121.621513,85.341896 
	C123.939934,84.840508 125.980682,84.566925 128.333832,84.376068 
	C128.855133,84.597420 129.064026,84.736046 129.631500,84.987930 
	C133.270706,88.863892 136.551315,92.626587 139.737427,97.016983 
	C133.579208,97.469154 128.500732,99.507446 123.935760,103.630219 
	C116.902985,109.981758 109.863235,116.424118 102.181908,121.928490 
	C95.791138,126.508057 94.195763,132.239517 94.212906,139.496979 
	C94.328087,188.263626 94.247551,237.030716 94.280823,285.797607 
	C94.282738,288.605286 94.689041,291.416351 94.973145,294.219177 
	C95.346489,297.902344 97.201149,300.312683 101.323822,301.235474 
	C115.847778,301.596344 130.044159,301.693329 144.240707,301.748291 
	C144.669891,301.749969 145.100784,301.313232 145.866943,301.077698 
	C147.492386,300.354401 148.923035,299.806946 150.048370,298.886322 
	C157.842773,292.509827 165.273834,285.641663 173.413025,279.748230 
	C180.868317,274.350006 185.563721,268.184662 184.140381,258.575623 
	C184.111572,258.381134 184.489777,258.126343 185.220963,257.246338 
	C186.630249,259.680145 187.898621,261.870544 189.106964,264.522095 
	C189.158936,274.953613 189.270966,284.924042 189.497925,295.213928 
	C190.714722,299.215820 193.047318,301.459137 197.447357,301.896423 
	C210.512726,301.973358 223.109756,302.019897 235.706238,301.958221 
	C237.277756,301.950531 238.846497,301.370361 240.753693,301.040649 
	C242.754562,299.956329 244.549789,299.045197 246.060120,297.790985 
	C254.386658,290.876251 262.390900,283.543457 271.012970,277.025055 
	C276.801117,272.649139 278.942291,267.345215 278.931549,260.412994 
	C278.855530,211.260574 278.907349,162.107941 278.863098,112.955444 
	C278.860718,110.314682 278.649933,107.602814 278.021179,105.050934 
	C277.122162,101.402222 275.085876,98.540916 270.606628,97.728256 
	C256.788910,97.365768 243.303543,97.237549 229.817856,97.166931 
	C229.235107,97.163872 228.649582,97.691246 227.718246,98.079216 
	C224.723297,99.779022 221.856995,101.098419 219.467194,103.012680 
	C211.180084,109.650764 203.058548,116.495560 194.531830,123.544594 
	C190.053223,118.458595 185.551041,113.813499 181.594101,108.742912 
	C175.618317,101.085342 168.227371,97.151375 158.349655,97.905617 
	C155.532623,98.120712 152.633316,97.258446 149.903259,96.544998 
	C151.461304,91.314377 152.887833,86.428993 154.314346,81.543602 
	C153.507492,81.319283 152.700623,81.094955 151.893768,80.870636 
	C150.912048,84.310432 150.090836,87.807930 148.883514,91.166618 
	C148.242310,92.950478 146.931564,94.493660 145.923035,96.145485 
	C141.543091,93.450432 140.218872,89.222893 140.110413,84.062149 
	C140.369308,83.630547 140.560211,83.556526 140.982056,83.277199 
	C142.146683,81.969788 143.425125,81.011429 143.954895,79.740891 
	C146.363037,73.965431 148.072128,68.093300 154.095810,64.326714 
	C156.931366,62.553642 158.146423,58.188976 160.121002,54.637894 
	C160.970413,53.539661 162.312485,52.025112 162.542908,52.178661 
	C167.968475,55.794411 169.140060,50.360279 171.696991,47.976559 
	C172.416855,47.305458 173.021820,46.511127 173.789307,45.482391 
	C174.483398,44.606060 175.067703,44.020664 175.795273,43.155331 
	C178.137436,42.241299 180.315018,41.517254 182.539413,40.990974 
	C187.937347,39.713852 191.779526,41.857868 194.672287,46.730175 
	C199.825211,52.197590 201.760223,51.972672 208.799713,45.046379 
	C212.515854,42.678570 215.767761,41.037231 218.008682,46.471161 
	C218.568314,47.828178 220.390366,48.664581 221.949341,49.923218 
	C226.942429,53.706787 231.618378,57.307404 236.627686,60.997402 
	C241.248825,64.217278 245.882568,65.891205 251.561340,64.244766 
	C252.086853,64.057022 252.300018,64.105209 252.840637,64.116493 
	C257.111969,64.830521 261.055817,65.581444 265.322693,66.420654 
z"/>
<path fill="#4E6C8A" opacity="1.000000" stroke="none" 
	d="
M47.750881,236.368256 
	C47.994110,258.972961 48.010010,281.913086 47.975830,304.853088 
	C47.972641,306.992889 47.652519,309.132263 47.247444,311.609894 
	C47.010136,288.673981 46.993622,265.399963 47.021835,242.126007 
	C47.024029,240.318344 47.339798,238.511078 47.750881,236.368256 
z"/>
<path fill="#486E91" opacity="1.000000" stroke="none" 
	d="
M67.010399,129.153809 
	C66.575638,128.110443 66.041183,127.010811 66.038170,125.909737 
	C66.001350,112.425911 66.039108,98.941872 66.078590,85.457947 
	C66.079834,85.032433 66.306671,84.607567 67.318810,84.212929 
	C67.318810,98.817772 67.318810,113.422607 67.377136,128.487122 
	C67.435471,128.946808 67.157646,129.096863 67.010399,129.153809 
z"/>
<path fill="#66A0CB" opacity="1.000000" stroke="none" 
	d="
M201.016479,360.509888 
	C201.001038,351.260376 201.001038,342.337677 201.001038,333.415009 
	C201.249130,333.411865 201.497223,333.408752 201.745316,333.405640 
	C201.745316,342.777496 201.746078,352.149353 201.730789,361.521179 
	C201.730682,361.589813 201.510895,361.658112 201.393707,361.726562 
	C201.273117,361.429962 201.152527,361.133331 201.016479,360.509888 
z"/>
<path fill="#66A0CB" opacity="1.000000" stroke="none" 
	d="
M167.819733,329.598206 
	C168.183517,329.196747 168.581497,329.255676 169.208572,329.516479 
	C169.285828,338.740906 169.134003,347.763489 168.973572,357.229126 
	C168.624680,352.608917 168.189499,347.549744 167.973740,342.481232 
	C167.797714,338.346161 167.883957,334.199921 167.819733,329.598206 
z"/>
<path fill="#476888" opacity="1.000000" stroke="none" 
	d="
M329.220856,139.839661 
	C328.996063,125.985825 328.991150,111.769684 329.056549,97.553871 
	C329.065582,95.594307 329.423157,93.636345 329.821411,91.312668 
	C330.023132,104.999069 330.046112,119.050522 329.997528,133.101715 
	C329.990173,135.227554 329.649475,137.352249 329.220856,139.839661 
z"/>
<path fill="#537B9E" opacity="1.000000" stroke="none" 
	d="
M96.838898,87.070541 
	C96.772392,76.083038 96.772392,65.160896 96.772392,54.238750 
	C96.997803,54.240993 97.223221,54.243237 97.448631,54.245480 
	C97.448631,64.960388 97.448631,75.675293 97.269867,86.771637 
	C97.091095,87.153069 96.905396,87.135910 96.838898,87.070541 
z"/>
<path fill="#21537F" opacity="1.000000" stroke="none" 
	d="
M294.789917,85.935715 
	C294.645264,85.968857 294.409088,85.764465 294.126099,85.288597 
	C294.255554,85.283089 294.461914,85.510117 294.789917,85.935715 
z"/>
<path fill="#537B9E" opacity="1.000000" stroke="none" 
	d="
M88.085251,301.881012 
	C88.534988,307.635864 88.944099,313.668945 89.353210,319.701996 
	C88.917015,319.716675 88.480820,319.731384 88.044624,319.746063 
	C88.044624,313.883789 88.044624,308.021484 88.085251,301.881012 
z"/>
<path fill="#5C90BB" opacity="1.000000" stroke="none" 
	d="
M159.033905,23.612875 
	C159.179916,32.197803 159.282883,41.237213 159.188812,50.640015 
	C158.991455,42.024719 158.991150,33.046036 159.033905,23.612875 
z"/>
<path fill="#890A9C" opacity="1.000000" stroke="none" 
	d="
M100.996277,300.965363 
	C97.201149,300.312683 95.346489,297.902344 94.973145,294.219177 
	C94.689041,291.416351 94.282738,288.605286 94.280823,285.797607 
	C94.247551,237.030716 94.328087,188.263626 94.212906,139.496979 
	C94.195763,132.239517 95.791138,126.508057 102.181908,121.928490 
	C109.863235,116.424118 116.902985,109.981758 123.935760,103.630219 
	C128.500732,99.507446 133.579208,97.469154 139.903503,97.318741 
	C141.838974,97.303825 143.513931,97.614845 145.904800,97.899109 
	C147.671066,97.544968 148.721405,97.217598 149.771744,96.890221 
	C152.633316,97.258446 155.532623,98.120712 158.349655,97.905617 
	C168.227371,97.151375 175.618317,101.085342 181.594101,108.742912 
	C185.551041,113.813499 190.053223,118.458595 194.531830,123.544594 
	C203.058548,116.495560 211.180084,109.650764 219.467194,103.012680 
	C221.856995,101.098419 224.723297,99.779022 228.179962,98.094193 
	C242.972137,97.992050 256.955505,97.982628 270.938873,97.973206 
	C275.085876,98.540916 277.122162,101.402222 278.021179,105.050934 
	C278.649933,107.602814 278.860718,110.314682 278.863098,112.955444 
	C278.907349,162.107941 278.855530,211.260574 278.931549,260.412994 
	C278.942291,267.345215 276.801117,272.649139 271.012970,277.025055 
	C262.390900,283.543457 254.386658,290.876251 246.060120,297.790985 
	C244.549789,299.045197 242.754562,299.956329 240.254318,301.014832 
	C228.361557,301.004852 217.304840,300.947083 206.249481,301.044769 
	C203.157181,301.072083 200.068924,301.557587 196.978821,301.832886 
	C193.047318,301.459137 190.714722,299.215820 189.665710,294.849609 
	C189.534683,284.130890 189.350830,274.095947 189.166992,264.060974 
	C187.898621,261.870544 186.630249,259.680145 185.220963,257.246338 
	C184.489777,258.126343 184.111572,258.381134 184.140381,258.575623 
	C185.563721,268.184662 180.868317,274.350006 173.413025,279.748230 
	C165.273834,285.641663 157.842773,292.509827 150.048370,298.886322 
	C148.923035,299.806946 147.492386,300.354401 145.357712,301.063904 
	C130.007034,301.023987 115.501656,300.994690 100.996277,300.965363 
M226.125198,101.302048 
	C225.071640,103.763191 223.201004,106.193794 223.107666,108.690826 
	C222.728195,118.842171 222.885925,129.013885 222.861435,139.178101 
	C222.845963,145.602509 222.858536,152.026993 222.858536,159.466553 
	C221.312500,158.082718 220.548080,157.528610 219.941360,156.836304 
	C205.776917,140.673889 191.591995,124.529129 177.500015,108.303665 
	C172.747513,102.831642 167.133148,99.664368 159.672485,99.961899 
	C154.016144,100.187462 148.343567,100.002853 142.678223,100.006111 
	C129.279465,100.013817 128.007050,101.305618 128.006378,114.946823 
	C128.003998,162.769028 128.004501,210.591217 128.009109,258.413422 
	C128.009293,260.245697 127.966293,262.085571 128.109039,263.908936 
	C128.648117,270.794830 130.975967,273.001617 137.920792,273.040558 
	C148.584641,273.100403 159.249084,273.075226 169.913223,273.055054 
	C179.729462,273.036530 181.189209,271.624573 181.210602,261.728333 
	C181.261353,238.234009 181.236481,214.739517 181.258743,191.245117 
	C181.260315,189.596008 181.397644,187.947037 181.534622,184.902649 
	C184.134979,188.436050 185.651703,190.751617 187.419037,192.856796 
	C198.117081,205.599762 209.004456,218.187454 219.487915,231.103516 
	C221.397705,233.456451 222.461655,237.038544 222.657410,240.132858 
	C223.140564,247.769943 222.853668,255.453766 222.950089,263.117859 
	C223.045883,270.732666 225.291000,273.017456 232.785034,273.044128 
	C243.282364,273.081482 253.780075,273.034760 264.277557,272.999420 
	C274.077454,272.966431 275.990265,271.072113 275.991821,261.355103 
	C275.999603,212.033249 276.000244,162.711411 275.978699,113.389565 
	C275.977753,111.231079 275.763916,109.070450 275.598328,106.914734 
	C275.276550,102.724846 272.575073,100.215370 268.809357,100.216042 
	C254.841156,100.218536 240.873062,100.693802 226.125198,101.302048 
z"/>
<path fill="#3E6C91" opacity="1.000000" stroke="none" 
	d="
M149.903259,96.544998 
	C148.721405,97.217598 147.671066,97.544968 146.278992,97.840103 
	C145.936691,97.438499 145.936111,97.069122 145.929291,96.422623 
	C146.931564,94.493660 148.242310,92.950478 148.883514,91.166618 
	C150.090836,87.807930 150.912048,84.310432 151.893768,80.870636 
	C152.700623,81.094955 153.507492,81.319283 154.314346,81.543602 
	C152.887833,86.428993 151.461304,91.314377 149.903259,96.544998 
z"/>
<path fill="#9735A6" opacity="1.000000" stroke="none" 
	d="
M101.323822,301.235474 
	C115.501656,300.994690 130.007034,301.023987 145.021667,301.067078 
	C145.100784,301.313232 144.669891,301.749969 144.240707,301.748291 
	C130.044159,301.693329 115.847778,301.596344 101.323822,301.235474 
z"/>
<path fill="#9735A6" opacity="1.000000" stroke="none" 
	d="
M197.447357,301.896423 
	C200.068924,301.557587 203.157181,301.072083 206.249481,301.044769 
	C217.304840,300.947083 228.361557,301.004852 239.917145,301.029633 
	C238.846497,301.370361 237.277756,301.950531 235.706238,301.958221 
	C223.109756,302.019897 210.512726,301.973358 197.447357,301.896423 
z"/>
<path fill="#83468D" opacity="1.000000" stroke="none" 
	d="
M270.606628,97.728256 
	C256.955505,97.982628 242.972137,97.992050 228.527069,97.986496 
	C228.649582,97.691246 229.235107,97.163872 229.817856,97.166931 
	C243.303543,97.237549 256.788910,97.365768 270.606628,97.728256 
z"/>
<path fill="#9735A6" opacity="1.000000" stroke="none" 
	d="
M189.106964,264.522095 
	C189.350830,274.095947 189.534683,284.130890 189.550751,294.530151 
	C189.270966,284.924042 189.158936,274.953613 189.106964,264.522095 
z"/>
<path fill="#111111" opacity="1.000000" stroke="none" 
	d="
M226.515060,101.146774 
	C240.873062,100.693802 254.841156,100.218536 268.809357,100.216042 
	C272.575073,100.215370 275.276550,102.724846 275.598328,106.914734 
	C275.763916,109.070450 275.977753,111.231079 275.978699,113.389565 
	C276.000244,162.711411 275.999603,212.033249 275.991821,261.355103 
	C275.990265,271.072113 274.077454,272.966431 264.277557,272.999420 
	C253.780075,273.034760 243.282364,273.081482 232.785034,273.044128 
	C225.291000,273.017456 223.045883,270.732666 222.950089,263.117859 
	C222.853668,255.453766 223.140564,247.769943 222.657410,240.132858 
	C222.461655,237.038544 221.397705,233.456451 219.487915,231.103516 
	C209.004456,218.187454 198.117081,205.599762 187.419037,192.856796 
	C185.651703,190.751617 184.134979,188.436050 181.534622,184.902649 
	C181.397644,187.947037 181.260315,189.596008 181.258743,191.245117 
	C181.236481,214.739517 181.261353,238.234009 181.210602,261.728333 
	C181.189209,271.624573 179.729462,273.036530 169.913223,273.055054 
	C159.249084,273.075226 148.584641,273.100403 137.920792,273.040558 
	C130.975967,273.001617 128.648117,270.794830 128.109039,263.908936 
	C127.966293,262.085571 128.009293,260.245697 128.009109,258.413422 
	C128.004501,210.591217 128.003998,162.769028 128.006378,114.946823 
	C128.007050,101.305618 129.279465,100.013817 142.678223,100.006111 
	C148.343567,100.002853 154.016144,100.187462 159.672485,99.961899 
	C167.133148,99.664368 172.747513,102.831642 177.500015,108.303665 
	C191.591995,124.529129 205.776917,140.673889 219.941360,156.836304 
	C220.548080,157.528610 221.312500,158.082718 222.858536,159.466553 
	C222.858536,152.026993 222.845963,145.602509 222.861435,139.178101 
	C222.885925,129.013885 222.728195,118.842171 223.107666,108.690826 
	C223.201004,106.193794 225.071640,103.763191 226.515060,101.146774 
M153.036209,125.880028 
	C153.078705,167.271439 153.121201,208.662842 153.221451,250.725662 
	C157.896332,252.174850 155.893356,248.297882 155.897659,246.905502 
	C156.017975,207.934906 155.994431,168.963837 155.994568,129.992859 
	C155.994568,128.276703 155.994568,126.560539 155.994568,124.158806 
	C157.209747,125.148392 157.631424,125.407463 157.947342,125.761055 
	C185.105515,156.157669 212.112656,186.691360 239.517197,216.864105 
	C245.568115,223.526245 249.583542,230.162537 248.077454,239.427765 
	C247.602448,242.350021 247.891800,245.415253 248.019684,248.406998 
	C248.066956,249.513199 248.655640,250.596237 248.997375,251.689850 
	C249.445374,251.621902 249.893372,251.553955 250.341370,251.486023 
	C250.341370,208.224304 250.341370,164.962585 250.341370,121.700867 
	C249.839844,121.614281 249.338303,121.527695 248.836777,121.441109 
	C248.545837,123.078636 248.004013,124.715729 248.001190,126.353752 
	C247.949966,155.998260 247.963699,185.642883 247.963562,215.287476 
	C247.963562,217.002228 247.963562,218.716980 247.963562,220.431747 
	C247.494461,220.628677 247.025375,220.825623 246.556274,221.022568 
	C245.893387,220.085602 245.310867,219.077606 244.555237,218.222610 
	C236.399902,208.994720 228.264832,199.748199 220.029388,190.592056 
	C211.076981,180.638763 201.964264,170.829453 193.030762,160.859421 
	C181.835342,148.365005 170.772842,135.751572 159.604309,123.232933 
	C156.674820,119.949326 154.933273,120.462387 153.036209,125.880028 
z"/>
<path fill="#8C1A9D" opacity="1.000000" stroke="none" 
	d="
M153.151306,124.932770 
	C154.933273,120.462387 156.674820,119.949326 159.604309,123.232933 
	C170.772842,135.751572 181.835342,148.365005 193.030762,160.859421 
	C201.964264,170.829453 211.076981,180.638763 220.029388,190.592056 
	C228.264832,199.748199 236.399902,208.994720 244.555237,218.222610 
	C245.310867,219.077606 245.893387,220.085602 246.556274,221.022568 
	C247.025375,220.825623 247.494461,220.628677 247.963562,220.431747 
	C247.963562,218.716980 247.963562,217.002228 247.963562,215.287476 
	C247.963699,185.642883 247.949966,155.998260 248.001190,126.353752 
	C248.004013,124.715729 248.545837,123.078636 248.836777,121.441109 
	C249.338303,121.527695 249.839844,121.614281 250.341370,121.700867 
	C250.341370,164.962585 250.341370,208.224304 250.341370,251.486023 
	C249.893372,251.553955 249.445374,251.621902 248.997375,251.689850 
	C248.655640,250.596237 248.066956,249.513199 248.019684,248.406998 
	C247.891800,245.415253 247.602448,242.350021 248.077454,239.427765 
	C249.583542,230.162537 245.568115,223.526245 239.517197,216.864105 
	C212.112656,186.691360 185.105515,156.157669 157.947342,125.761055 
	C157.631424,125.407463 157.209747,125.148392 155.994568,124.158806 
	C155.994568,126.560539 155.994568,128.276703 155.994568,129.992859 
	C155.994431,168.963837 156.017975,207.934906 155.897659,246.905502 
	C155.893356,248.297882 157.896332,252.174850 153.349518,250.003021 
	C153.637970,247.636337 153.937210,245.992401 153.938385,244.348251 
	C153.965424,206.497757 153.972031,168.647247 153.926163,130.796799 
	C153.923798,128.841797 153.421082,126.887428 153.151306,124.932770 
z"/>
<path fill="#9735A6" opacity="1.000000" stroke="none" 
	d="
M153.093750,125.406403 
	C153.421082,126.887428 153.923798,128.841797 153.926163,130.796799 
	C153.972031,168.647247 153.965424,206.497757 153.938385,244.348251 
	C153.937210,245.992401 153.637970,247.636337 153.320633,249.667328 
	C153.121201,208.662842 153.078705,167.271439 153.093750,125.406403 
z"/>
</svg>